<svg xmlns="http://www.w3.org/2000/svg" width="40" height="40" viewBox="0 0 40 40">
  <defs>
    <linearGradient id="lender-logo-sq40-federal-copy-5-a" x1="188.98%" x2="-70.691%" y1="56.692%" y2="44.183%">
      <stop offset="18.97%" stop-color="#FFF"/>
      <stop offset="52.58%" stop-color="#8E9093"/>
      <stop offset="76.02%" stop-color="#49494B"/>
      <stop offset="86.58%"/>
    </linearGradient>
    <linearGradient id="lender-logo-sq40-federal-copy-5-b" x1="129.672%" x2="-33.685%" y1="49.84%" y2="50.063%">
      <stop offset="3.85%" stop-color="#FFF"/>
      <stop offset="4.7%" stop-color="#FAFAFA"/>
      <stop offset="23.89%" stop-color="#BABCBE"/>
      <stop offset="41.89%" stop-color="#898B8D"/>
      <stop offset="58.14%" stop-color="#646567"/>
      <stop offset="72.32%" stop-color="#444446"/>
      <stop offset="83.9%" stop-color="#1C1C1D"/>
      <stop offset="91.42%"/>
    </linearGradient>
  </defs>
  <g fill="none" transform="translate(4 5.524)">
    <path fill="#004E96" d="M6.4,16.7939048 C2.80228571,17.0758095 1.90019048,19.1619048 1.90019048,19.1619048 L1.92761905,19.0186667 C1.92609524,19.0247619 1.92304762,19.0293333 1.92152381,19.0339048 L0.096,28.8746667 L5.92609524,28.8746667 C8.15847619,28.8746667 10.072381,27.2822857 10.4792381,25.0864762 L12.032,16.6826667 C12.032,16.6857143 9.42780952,16.5577143 6.4,16.7939048 Z"/>
    <path fill="#004E96" d="M8.02895238,15.6388571 C7.25180952,15.6449524 2.94095238,15.8689524 1.92761905,19.0201905 L1.90019048,19.1634286 C1.90019048,19.1634286 2.80228571,17.0773333 6.4,16.7954286 C9.42780952,16.5577143 12.032,16.6857143 12.032,16.6857143 L12.2285714,15.6297143 L9.06361905,15.6327619 C8.66742857,15.6342857 8.31695238,15.6358095 8.02895238,15.6388571 Z"/>
    <path fill="url(#lender-logo-sq40-federal-copy-5-a)" d="M8.02895238,15.6388571 C7.25180952,15.6449524 2.94095238,15.8689524 1.92761905,19.0201905 L1.90019048,19.1634286 C1.90019048,19.1634286 2.80228571,17.0773333 6.4,16.7954286 C9.42780952,16.5577143 12.032,16.6857143 12.032,16.6857143 L12.2285714,15.6297143 L9.06361905,15.6327619 C8.66742857,15.6342857 8.31695238,15.6358095 8.02895238,15.6388571 Z" style="mix-blend-mode:multiply"/>
    <path fill="#FAA61A" d="M12.0502857,8.80914286 C9.59695238,8.79085714 7.81714286,8.66438095 5.78285714,9.33638095 C3.74857143,10.008381 3.38285714,11.2152381 3.38285714,11.2152381 C3.38742857,11.1832381 3.39352381,11.1512381 3.39961905,11.1207619 L3.13295238,12.5546667 L3.12533333,12.5500952 L2.55238095,15.640381 L1.92304762,19.0354286 C1.92457143,19.0293333 1.92761905,19.0247619 1.92914286,19.0201905 C2.944,15.8704762 7.25333333,15.6464762 8.03047619,15.6388571 C8.31847619,15.6358095 8.66895238,15.6342857 9.06514286,15.6327619 C9.95504762,15.6297143 11.0750476,15.6281905 12.2300952,15.6281905 C15.2457143,15.6281905 18.4990476,15.6388571 18.4990476,15.6388571 C21.0346667,15.6388571 23.2106667,13.831619 23.6739048,11.3386667 L24.3215238,7.85828571 L24.128,8.89752381 C24.128,8.896 14.503619,8.82742857 12.0502857,8.80914286 Z"/>
    <path fill="#FAA61A" d="M9.54057143,7.85828571 C9.54057143,7.85828571 9.536,7.85828571 9.53295238,7.85828571 L8.53485714,7.85828571 C7.84152381,7.89333333 6.88761905,8.00761905 5.99314286,8.34742857 C4.85638095,8.77866667 3.872,9.58019048 3.424,10.9897143 C3.42095238,11.0034286 3.41790476,11.0171429 3.41485714,11.032381 L3.39809524,11.1207619 C3.392,11.1527619 3.38590476,11.1832381 3.38133333,11.2152381 C3.38133333,11.2152381 3.74704762,10.008381 5.78133333,9.33638095 C7.81561905,8.66438095 9.59695238,8.79085714 12.0487619,8.80914286 C14.5005714,8.82742857 24.1264762,8.896 24.1264762,8.896 L24.32,7.8567619 L9.54057143,7.85828571 L9.54057143,7.85828571 Z"/>
    <path fill="url(#lender-logo-sq40-federal-copy-5-b)" d="M9.54057143,7.85828571 C9.54057143,7.85828571 9.536,7.85828571 9.53295238,7.85828571 L8.53485714,7.85828571 C7.84152381,7.89333333 6.88761905,8.00761905 5.99314286,8.34742857 C4.85638095,8.77866667 3.872,9.58019048 3.424,10.9897143 C3.42095238,11.0034286 3.41790476,11.0171429 3.41485714,11.032381 L3.39809524,11.1207619 C3.392,11.1527619 3.38590476,11.1832381 3.38133333,11.2152381 C3.38133333,11.2152381 3.74704762,10.008381 5.78133333,9.33638095 C7.81561905,8.66438095 9.59695238,8.79085714 12.0487619,8.80914286 C14.5005714,8.82742857 24.1264762,8.896 24.1264762,8.896 L24.32,7.8567619 L9.54057143,7.85828571 L9.54057143,7.85828571 Z" style="mix-blend-mode:multiply"/>
    <path fill="#004E96" d="M7.10247619,0.0761904762 C6.15161905,0.0761904762 5.33485714,0.754285714 5.16114286,1.68838095 L5.16114286,1.68838095 L5.15961905,1.68533333 L4.00914286,7.8567619 L3.424,10.9927619 C3.424,10.9912381 3.42552381,10.9897143 3.42552381,10.9881905 C3.87352381,9.58019048 4.85790476,8.77714286 5.99466667,8.34590476 C6.89066667,8.00609524 7.84304762,7.89180952 8.53638095,7.8567619 C8.53638095,7.8567619 8.53638095,7.8567619 8.53638095,7.8567619 L9.53295238,7.8567619 C9.53295238,7.8567619 9.53295238,7.8567619 9.53295238,7.8567619 C9.53447619,7.8567619 9.54057143,7.8567619 9.54057143,7.8567619 L9.54057143,7.8567619 L9.54057143,7.8567619 L24.3017143,7.8567619 L26.8906667,7.8567619 C28.8670476,7.8567619 30.5706667,6.47009524 30.9744762,4.53638095 L31.904,0.0761904762 L7.10247619,0.0761904762 Z"/>
  </g>
</svg>
