<?xml version="1.0" encoding="UTF-8" standalone="no"?>
<svg
   xmlns:dc="http://purl.org/dc/elements/1.1/"
   xmlns:cc="http://creativecommons.org/ns#"
   xmlns:rdf="http://www.w3.org/1999/02/22-rdf-syntax-ns#"
   xmlns:svg="http://www.w3.org/2000/svg"
   xmlns="http://www.w3.org/2000/svg"
   viewBox="0 0 793.70667 731.96399"
   height="731.96399"
   width="793.70667"
   xml:space="preserve"
   id="svg2"
   version="1.1"><metadata
     id="metadata8"><rdf:RDF><cc:Work
         rdf:about=""><dc:format>image/svg+xml</dc:format><dc:type
           rdf:resource="http://purl.org/dc/dcmitype/StillImage" /></cc:Work></rdf:RDF></metadata><defs
     id="defs6"><clipPath
       id="clipPath26"
       clipPathUnits="userSpaceOnUse"><path
         id="path24"
         d="M 0,548.973 H 595.28 V 0 H 0 Z" /></clipPath></defs><g
     transform="matrix(1.3333333,0,0,-1.3333333,0,731.964)"
     id="g10"><path
       id="path12"
       style="fill:#004a90;fill-opacity:1;fill-rule:nonzero;stroke:none"
       d="m 531.64,65.617 h -468 v 78 h 468 z" /><path
       id="path14"
       style="fill:#004a90;fill-opacity:1;fill-rule:nonzero;stroke:none"
       d="m 531.64,65.617 h -390 v 78 h 390 z" /><g
       transform="translate(166.4428,86.1732)"
       id="g16"><path
         id="path18"
         style="fill:#ffffff;fill-opacity:1;fill-rule:nonzero;stroke:none"
         d="M 0,0 V 36.902 H 12.143 V 24.441 H 23.517 V 36.902 H 35.68 V 0 H 23.517 V 14.314 H 12.143 L 12.143,0 Z" /></g><g
       id="g20"><g
         clip-path="url(#clipPath26)"
         id="g22"><g
           transform="translate(226.021,86.1732)"
           id="g28"><path
             id="path30"
             style="fill:#ffffff;fill-opacity:1;fill-rule:nonzero;stroke:none"
             d="m 0,0 c 2.862,0 5.231,0.232 7.178,0.745 1.948,0.51 3.542,1.177 4.754,1.971 1.234,0.809 2.359,1.908 3.383,3.272 1.022,1.411 1.916,3.19 2.613,5.363 0.716,2.166 1.053,4.609 1.053,7.38 0,4.059 -0.773,7.495 -2.339,10.357 -1.592,2.807 -3.749,4.828 -6.502,6.024 -2.749,1.204 -6.028,1.79 -9.835,1.79 H -16.564 V 0 Z m -4.689,27.726 h 3.148 c 2.261,0 3.918,-0.232 4.984,-0.708 0.784,-0.337 1.414,-0.85 1.972,-1.613 0.519,-0.749 0.93,-1.705 1.232,-2.901 0.279,-1.183 0.426,-2.438 0.426,-3.769 0,-2.16 -0.304,-3.963 -0.934,-5.418 C 5.522,11.85 4.624,10.801 3.481,10.153 2.333,9.504 0.623,9.191 -1.63,9.191 L -4.689,9.163 Z" /></g><g
           transform="translate(250.5696,86.1732)"
           id="g32"><path
             id="path34"
             style="fill:#ffffff;fill-opacity:1;fill-rule:nonzero;stroke:none"
             d="M 0,0 V 36.902 H 28.789 V 27.797 H 11.978 v -5.912 h 13.444 v -8.86 H 11.978 L 11.978,0 Z" /></g><g
           transform="translate(320.0145,108.9636)"
           id="g36"><path
             id="path38"
             style="fill:#ffffff;fill-opacity:1;fill-rule:nonzero;stroke:none"
             d="m 0,0 h -11.458 c -0.215,1.836 -0.885,3.283 -1.997,4.325 -1.116,1.019 -2.514,1.52 -4.244,1.52 -2.142,0 -3.897,-0.838 -5.237,-2.485 -1.356,-1.665 -2.032,-4.358 -2.032,-8.072 0,-2.582 0.306,-4.531 0.87,-5.854 0.569,-1.36 1.386,-2.341 2.4,-3.002 1.036,-0.649 2.306,-0.956 3.866,-0.956 1.863,0 3.346,0.467 4.437,1.541 1.115,1.015 1.768,2.527 1.979,4.544 H 0.261 C 0,-10.73 -0.459,-12.65 -1.122,-14.217 c -0.64,-1.566 -1.775,-3.112 -3.321,-4.674 -1.554,-1.575 -3.415,-2.792 -5.567,-3.638 -2.15,-0.851 -4.624,-1.259 -7.472,-1.259 -2.809,0 -5.424,0.408 -7.792,1.229 -2.394,0.847 -4.406,2.045 -6.011,3.542 -1.643,1.558 -2.915,3.305 -3.828,5.28 -1.312,2.773 -1.937,5.82 -1.937,9.223 0,2.847 0.462,5.542 1.398,8.009 0.926,2.459 2.215,4.544 3.852,6.235 1.649,1.674 3.438,2.929 5.444,3.775 2.528,1.078 5.315,1.592 8.402,1.592 2.687,0 5.182,-0.388 7.529,-1.184 2.344,-0.791 4.272,-1.949 5.774,-3.495 1.52,-1.533 2.682,-3.303 3.497,-5.314 C -0.569,3.702 -0.192,2.005 0,0" /></g><g
           transform="translate(360.0008,101.6193)"
           id="g40"><path
             id="path42"
             style="fill:#ffffff;fill-opacity:1;fill-rule:nonzero;stroke:none"
             d="M 0,0 C 2.4,0 3.958,-0.284 4.739,-0.901 5.476,-1.499 5.868,-2.333 5.868,-3.44 5.868,-4.558 5.47,-5.432 4.676,-6.049 3.923,-6.712 2.341,-6.99 0,-6.99 H -4.954 V 0 Z m 1.95,-15.446 c 2.872,0 4.889,0.13 6.085,0.396 1.162,0.271 2.368,0.694 3.594,1.267 1.198,0.626 2.12,1.215 2.728,1.861 0.938,0.872 1.637,1.938 2.152,3.214 0.508,1.28 0.765,2.733 0.765,4.291 0,2.227 -0.558,4.059 -1.67,5.546 -1.12,1.507 -2.621,2.499 -4.516,3.036 3.211,2.017 4.811,4.632 4.811,7.811 0,3.281 -1.415,5.786 -4.207,7.498 -2.156,1.312 -5.523,1.981 -10.081,1.981 h -18.312 v -36.901 z m -3.045,28.591 c 1.714,0 2.824,-0.072 3.371,-0.236 C 2.981,12.711 3.575,12.307 3.99,11.778 4.42,11.227 4.647,10.591 4.647,9.854 4.647,8.915 4.276,8.138 3.556,7.542 2.796,6.932 1.491,6.647 -0.383,6.647 h -4.571 v 6.498 z" /></g><g
           transform="translate(392.5902,86.1732)"
           id="g44"><path
             id="path46"
             style="fill:#ffffff;fill-opacity:1;fill-rule:nonzero;stroke:none"
             d="M 0,0 1.396,4.845 H 13.48 L 14.892,0 H 26.963 L 13.732,36.902 H 1.396 L -11.854,0 Z M 11.345,12.408 H 3.626 l 3.809,13.423 z" /></g><g
           transform="translate(424.6534,86.1732)"
           id="g48"><path
             id="path50"
             style="fill:#ffffff;fill-opacity:1;fill-rule:nonzero;stroke:none"
             d="M 0,0 V 36.902 H 11.307 L 24.068,17.143 V 36.902 H 35.697 L 35.697,0 H 24.148 L 11.66,19.266 V 0 Z" /></g><g
           transform="translate(468.4402,86.1732)"
           id="g52"><path
             id="path54"
             style="fill:#ffffff;fill-opacity:1;fill-rule:nonzero;stroke:none"
             d="M 0,0 V 36.902 H 11.762 V 24.729 L 22.738,36.902 H 36.992 L 23.473,23.009 38.397,0 H 23.864 L 14.987,14.697 11.762,11.511 V 0 Z" /></g><path
           id="path56"
           style="fill:#ed1c24;fill-opacity:1;fill-rule:nonzero;stroke:none"
           d="m 141.64,65.617 h -78 v 78 h 78 z" /><path
           id="path58"
           style="fill:#ffffff;fill-opacity:1;fill-rule:nonzero;stroke:none"
           d="M 127.988,79.267 H 77.29 v 50.701 h 50.698 z" /><path
           id="path60"
           style="fill:#ffffff;fill-opacity:1;fill-rule:nonzero;stroke:none"
           d="m 106.54,65.617 h -7.801 v 78 h 7.801 z" /><path
           id="path62"
           style="fill:#ffffff;fill-opacity:1;fill-rule:nonzero;stroke:none"
           d="m 63.64,108.517 h 78 v -7.799 h -78 z" /><path
           id="path64"
           style="fill:#004a90;fill-opacity:1;fill-rule:nonzero;stroke:none"
           d="M 114.339,92.915 H 90.94 v 23.401 h 23.399 z" /><path
           id="path66"
           style="fill:#ed1c24;fill-opacity:1;fill-rule:nonzero;stroke:none"
           d="M 437.133,204.37 H 158.148 v 278.986 h 278.985 z" /><path
           id="path68"
           style="fill:#ffffff;fill-opacity:1;fill-rule:nonzero;stroke:none"
           d="M 388.306,253.194 H 206.971 V 434.54 h 181.335 z" /><path
           id="path70"
           style="fill:#ffffff;fill-opacity:1;fill-rule:nonzero;stroke:none"
           d="m 311.591,204.37 h -27.903 v 278.986 h 27.903 z" /><path
           id="path72"
           style="fill:#ffffff;fill-opacity:1;fill-rule:nonzero;stroke:none"
           d="M 158.147,357.814 H 437.132 V 329.919 H 158.147 Z" /><path
           id="path74"
           style="fill:#004a90;fill-opacity:1;fill-rule:nonzero;stroke:none"
           d="m 339.486,302.009 h -83.692 v 83.699 h 83.692 z" /></g></g></g></svg>